# xmcd CD database file
#
# Track frame offsets:
#	183
#	12038
#	25308
#	51358
#	66058
#	79408
#	92138
#	107068
#	116415
#	128785
#	140323
#	153508
#	166608
#	181370
#	195078
#	207780
#	223033
#	249258
#
# Disc length: 3504 seconds
#
# Revision: 0
# Processed by: cddbd v1.4PL0 Copyright (c) Steve Scherf et al.
# Submitted via: CDex 1.50
#
DISCID=e90dae12
DTITLE=Big Joe Turner - Gigante del Blues
DYEAR=1996
DGENRE=Blues
TTITLE0=Roll'em Pete
TTITLE1=Cherry Red
TTITLE2=On The Sunny Side Of The Street
TTITLE3=How Long Blues
TTITLE4=Shake It And Break It
TTITLE5=Low Down Dirty Shame
TTITLE6=I Can't Give You Anything But Love
TTITLE7=Goin' Away Blues
TTITLE8=Joe Turner Blues
TTITLE9=Beale Street Blues
TTITLE10=Piney Brown Blues
TTITLE11=Wee Baby Blues
TTITLE12=Rocks In My Bed
TTITLE13=Goin' To Chicago Blues
TTITLE14=Low Down Dog
TTITLE15=Little Bittie Gal's Blues
TTITLE16=S.K. Blues
TTITLE17=Johnson And Turner Bles
EXTD=YEAR: 1996
EXTT0=
EXTT1=
EXTT2=
EXTT3=
EXTT4=
EXTT5=
EXTT6=
EXTT7=
EXTT8=
EXTT9=
EXTT10=
EXTT11=
EXTT12=
EXTT13=
EXTT14=
EXTT15=
EXTT16=
EXTT17=
PLAYORDER=
